<svg t="1770217445115" class="icon" viewBox="0 0 1024 1024" version="1.1" xmlns="http://www.w3.org/2000/svg" p-id="14318" width="200" height="200"><path d="M726.4 3.328a105.514667 105.514667 0 0 1 105.514667 100.8l0.106666 4.565333v59.477334h-36.053333V108.693333a69.461333 69.461333 0 0 0-65.621333-69.226666l-3.946667-0.128H194.282667A69.482667 69.482667 0 0 0 124.8 104.768l-0.128 3.925333v806.613334a69.461333 69.461333 0 0 0 65.664 69.226666l3.946667 0.128H726.4a69.504 69.504 0 0 0 69.482667-65.429333l0.106666-3.925333V427.925333H832v487.381334a105.493333 105.493333 0 0 1-101.056 105.28l-4.565333 0.085333H194.282667A105.514667 105.514667 0 0 1 88.746667 919.893333l-0.085334-4.565333V108.693333A105.493333 105.493333 0 0 1 189.696 3.413333l4.586667-0.085333H726.4z" p-id="14319"></path><path d="M629.098667 566.528l-140.16 23.957333v109.44h140.16v-133.397333z m-288.234667 48.213333v85.12h118.442667v-105.386666l-118.442667 20.266666z m148.096 109.226667v109.76l140.138667 23.552v-133.333333h-140.16z m-148.096 0v85.888l118.442667 19.925333v-105.813333h-118.442667zM867.264 137.322667H390.933333c-37.738667 0-68.096 31.317333-68.096 69.674666v169.237334c0 38.378667 30.357333 69.696 68.096 69.696h476.330667c37.717333 0 68.074667-31.317333 68.074667-69.696V206.997333c0-38.357333-30.357333-69.674667-68.074667-69.674666zM390.933333 173.354667h476.330667c17.578667 0 32.064 14.933333 32.064 33.642666v169.237334c0 18.730667-14.506667 33.664-32.064 33.664H390.933333c-17.578667 0-32.064-14.933333-32.064-33.664V206.997333c0-18.709333 14.506667-33.642667 32.064-33.642666z" p-id="14320"></path><path d="M430.933333 221.226667v145.386666h108.096V339.626667h-73.002666V306.773333H531.2v-26.986666h-65.173333v-31.573334h71.808V221.226667zM663.893333 221.226667l-26.453333 41.344-5.632 14.336-5.845333-14.336-25.365334-41.344h-38.784l45.930667 71.466666-50.709333 73.92h34.901333l29.013333-44.224 6.314667-14.954666 6.506667 14.933333 29.013333 44.245333h38.378667l-50.069334-75.392 47.68-69.973333zM719.168 221.226667v145.386666h108.096V339.626667h-73.002667V306.773333h65.173334v-26.986666h-65.173334v-31.573334h71.808V221.226667z" p-id="14321"></path></svg>